<?xml version="1.0" encoding="utf-8"?>
<!-- Generator: Adobe Illustrator 24.0.3, SVG Export Plug-In . SVG Version: 6.00 Build 0)  -->
<svg version="1.1" xmlns="http://www.w3.org/2000/svg" xmlns:xlink="http://www.w3.org/1999/xlink" x="0px" y="0px"
	 viewBox="0 0 100 87" style="enable-background:new 0 0 100 87;" xml:space="preserve">
<style type="text/css">
	.st0{enable-background:new    ;}
	.st1{fill-rule:evenodd;clip-rule:evenodd;fill:#F4FAFF;}
	.st2{fill-rule:evenodd;clip-rule:evenodd;fill:#1085E4;}
</style>
<g id="Shape_1_1_" class="st0">
	<g id="Shape_1">
		<g>
			<path class="st1" d="M99.33,23.87c-1.2-3.72-9.53-7.05-12.89-5.76c-4.75,1.84-12.75,6.59-12.89,1.44
				C73.19,6.24,65.55-4.64,55.38,2c-3.6,2.35-5.56,6.89-9.13,9.3c-3.28,2.22-7.38,2.51-11.21,2.5c-7.76-0.03-16.78-3.45-19.11,7.25
				c-1.59,7.29,7.58,11.94,5.34,18.95c-0.7,2.19-2.87,3.81-4.65,5.18c-4.43,3.4-7.73,6.32-11.01,11.14
				c-6.14,9.03-6.58,13.24-4.43,18.93c2.33,6.17,11.04,11.96,18.26,9.06c8.67-3.47,7.85-10.87,17.49-14.71
				c8.14-3.24,10.62,3.7,13.67,9.38C56.36,89.71,67.54,89.3,75.16,80c2.48-3.03,6.71-9.64,5.88-13.98c-0.68-3.5-5.24-5.61-7.45-7.98
				c-7.77-8.33,5.28-11.33,12.13-14.39C92.26,40.74,102.81,34.73,99.33,23.87z"/>
		</g>
	</g>
</g>
<g id="icon_1_" class="st0">
	<g id="icon">
		<g>
			<path class="st2" d="M73.43,43.48C73.43,28.82,61.6,17,47,17c-14.6,0-26.43,11.82-26.43,26.41c0,0,0,0,0,0.07
				C14.69,43.81,10,48.7,10,54.64v1.32c0,6.21,5.02,11.23,11.23,11.23h0.59l4.69,7.46c3.3,5.28,8.92,8.39,15.13,8.39h0.92
				c0.59,2.25,2.64,3.96,5.09,3.96c2.91,0,5.29-2.38,5.29-5.28c0-2.91-2.38-5.28-5.29-5.28c-2.44,0-4.49,1.72-5.09,3.96h-0.92
				c-5.29,0-10.11-2.71-12.88-7.2l-3.83-6.01h0.92c1.45,0,2.64-1.19,2.64-2.64V46.06c0-1.45-1.19-2.64-2.64-2.64h-2.64
				c0-13.14,10.64-23.77,23.79-23.77c13.15,0,23.79,10.63,23.79,23.77h-2.64c-1.45,0-2.64,1.19-2.64,2.64v18.49
				c0,1.45,1.19,2.64,2.64,2.64h4.62c6.21,0,11.23-5.02,11.23-11.23v-1.32C84,48.7,79.31,43.81,73.43,43.48z M47.66,79.08
				c1.45,0,2.64,1.19,2.64,2.64c0,1.45-1.19,2.64-2.64,2.64c-1.45,0-2.64-1.19-2.64-2.64C45.02,80.26,46.21,79.08,47.66,79.08z
				 M25.86,46.06v18.49h-4.62c-4.76,0-8.59-3.83-8.59-8.58v-1.32c0-4.75,3.83-8.58,8.59-8.58H25.86z M81.36,55.96
				c0,4.75-3.83,8.58-8.59,8.58h-4.62V46.06h4.62c4.76,0,8.59,3.83,8.59,8.58V55.96z M57.97,26.97c-0.13-0.07-0.33-0.2-0.53-0.33
				c-0.2-0.13-0.4-0.26-0.53-0.33c-0.59-0.4-1.45-0.2-1.78,0.46c-0.33,0.66-0.2,1.39,0.46,1.78c0.13,0.07,0.33,0.2,0.53,0.33
				c0.2,0.13,0.4,0.26,0.59,0.33c0.2,0.13,0.46,0.2,0.66,0.2c0.46,0,0.86-0.2,1.12-0.66C58.83,28.16,58.63,27.37,57.97,26.97z
				 M47,23.6c-5.62,0-10.9,2.44-14.54,6.67c-0.46,0.53-0.4,1.39,0.13,1.85c0.26,0.2,0.53,0.33,0.86,0.33c0.4,0,0.73-0.13,0.99-0.46
				c3.17-3.63,7.73-5.74,12.55-5.74c1.19,0,2.38,0.13,3.57,0.4c0.73,0.13,1.39-0.33,1.59-0.99c0.2-0.66-0.33-1.39-0.99-1.58
				C49.77,23.74,48.39,23.6,47,23.6z"/>
		</g>
	</g>
</g>
</svg>
