<svg xmlns="http://www.w3.org/2000/svg" viewBox="0 0 19.97 20.43"><defs><style>.cls-1{isolation:isolate;}.cls-2{fill:#e22425;fill-rule:evenodd;}</style></defs><title>icon-path</title><g id="Path" class="cls-1"><g id="Path-2" data-name="Path"><path class="cls-2" d="M10,.57A10.1,10.1,0,0,0,0,10.78,10.1,10.1,0,0,0,10,21,10.1,10.1,0,0,0,20,10.78,10.1,10.1,0,0,0,10,.57Zm1.39,13a3.6,3.6,0,0,1-1.4-.28v1.45a1.84,1.84,0,0,1-2.06,2,1.75,1.75,0,0,1-1.41-.52V14.5a1.4,1.4,0,0,0,.9.36A.61.61,0,0,0,8,14.2v-6h2v3.5a2.42,2.42,0,0,0,1,.18,2.36,2.36,0,0,0,2.39-2.3c0-1.85-1.55-2.86-3.67-2.86S6.17,8.05,6.17,9.68a2.5,2.5,0,0,0,.54,1.49L5.27,12.43a3.37,3.37,0,0,1-1-2.72c0-1.93,1.23-4.88,5.37-4.88,2.87,0,5.72,1.46,5.72,4.71A4,4,0,0,1,11.39,13.55Z" transform="translate(-0.02 -0.57)"/></g></g></svg>