<svg xmlns="http://www.w3.org/2000/svg" viewBox="0 0 19.98 20.45"><defs><style>.cls-1{isolation:isolate;}.cls-2{fill:#db4a38;fill-rule:evenodd;}</style></defs><title>icon-google+</title><g id="Google_" data-name="Google +" class="cls-1"><g id="Google_2" data-name="Google +"><path class="cls-2" d="M7.11,4.84c-.24,0-1.32.23-1.32,1.73,0,2.13,1.57,2.82,2,2.77S9.21,9.05,9.21,7.5,8.07,4.78,7.11,4.84Zm.5,6.92c-1.12,0-2.57.75-2.57,1.93a2.22,2.22,0,0,0,2.39,2c1.21,0,2.62-.33,2.62-1.95,0-.48-.16-.78-.71-1.25a3.33,3.33,0,0,0-.77-.56A2.52,2.52,0,0,0,7.61,11.76ZM10,0A10.11,10.11,0,0,0,0,10.23,10.11,10.11,0,0,0,10,20.45,10.11,10.11,0,0,0,20,10.23,10.11,10.11,0,0,0,10,0Zm.49,7A2.47,2.47,0,0,1,9.39,9c-.67.5-.62.88-.62,1,0,.46,1,1.17,1.37,1.49A2.39,2.39,0,0,1,11,13.59c0,1.23-1.13,2.67-3.55,2.67S3.73,15.2,3.73,14,5,12.09,5.31,11.89a4.84,4.84,0,0,1,2.6-.48A1.35,1.35,0,0,1,7.6,9.7,2.72,2.72,0,0,1,4.51,7a3,3,0,0,1,3-2.74h3.73l-.8.59H9.32A2.29,2.29,0,0,1,10.48,7ZM15,7.38V9.66h-.56V7.38H12.21V6.82h2.22V4.54H15V6.82h2.22v.56Z" transform="translate(0 0)"/></g></g></svg>