<?xml version="1.0" encoding="utf-8"?>
<!-- Generator: Adobe Illustrator 24.0.3, SVG Export Plug-In . SVG Version: 6.00 Build 0)  -->
<svg version="1.1" xmlns="http://www.w3.org/2000/svg" xmlns:xlink="http://www.w3.org/1999/xlink" x="0px" y="0px"
	 viewBox="0 0 79 82" style="enable-background:new 0 0 79 82;" xml:space="preserve">
<style type="text/css">
	.st0{enable-background:new    ;}
	.st1{fill-rule:evenodd;clip-rule:evenodd;fill:#F4FAFF;}
	.st2{fill-rule:evenodd;clip-rule:evenodd;fill:#1085E4;}
</style>
<g id="bg_1_" class="st0">
	<g id="bg">
		<g>
			<circle class="st1" cx="39.5" cy="39.5" r="39.5"/>
		</g>
	</g>
</g>
<g id="icon_1_" class="st0">
	<g id="icon">
		<g>
			<path class="st2" d="M48.35,70.33c-2.3,0-4.17,1.83-4.17,4.09c0,2.25,1.87,4.09,4.17,4.09c2.3,0,4.17-1.83,4.17-4.09
				C52.51,72.16,50.64,70.33,48.35,70.33z M48.35,76.17c-0.98,0-1.79-0.79-1.79-1.75c0-0.97,0.8-1.75,1.79-1.75
				c0.98,0,1.79,0.79,1.79,1.75C50.13,75.38,49.33,76.17,48.35,76.17z M53.71,55.15c2.63,0,4.76-2.09,4.76-4.67
				c0-2.58-2.14-4.67-4.76-4.67c-2.63,0-4.76,2.09-4.76,4.67C48.94,53.06,51.08,55.15,53.71,55.15z M53.71,48.15
				c1.31,0,2.38,1.05,2.38,2.33c0,1.29-1.07,2.33-2.38,2.33c-1.31,0-2.38-1.05-2.38-2.33C51.32,49.2,52.39,48.15,53.71,48.15z
				 M26.66,21.64l-2.38,2.33c-0.47,0.46-0.47,1.19,0,1.65c0.23,0.23,0.54,0.34,0.84,0.34s0.61-0.11,0.84-0.34l2.38-2.33
				c0.47-0.46,0.47-1.19,0-1.65C27.88,21.19,27.13,21.19,26.66,21.64z M68,55.74c0-2.03-0.65-4-1.83-5.66l0.68-0.67
				c0.74-0.73,1.15-1.69,1.15-2.72c0-1.03-0.41-1.99-1.15-2.72l-0.66-0.65c1.13-0.98,1.81-2.4,1.81-3.92c0-2.9-2.4-5.25-5.36-5.25
				c-0.22,0-0.43,0.02-0.64,0.05c0.03-0.21,0.05-0.42,0.05-0.63c0-2.9-2.4-5.25-5.36-5.25c-0.22,0-0.43,0.02-0.64,0.05
				c0.03-0.21,0.05-0.42,0.05-0.63c0-2.9-2.4-5.25-5.36-5.25c-0.22,0-0.43,0.02-0.64,0.05c0.03-0.21,0.05-0.42,0.05-0.63
				c0-2.9-2.4-5.25-5.36-5.25c-1.56,0-3,0.67-4,1.78l-0.95-0.93l-4.48-4.39c-1.53-1.5-4.02-1.5-5.55,0L15.13,27.46
				c-1.53,1.5-1.53,3.94,0,5.44l4.48,4.39l5.85,5.73c-1.61,0.91-2.72,2.59-2.72,4.54c0,1.82,0.96,3.43,2.4,4.38
				c0.07,0.09,0.16,0.19,0.27,0.28l12.81,12.51v2.1h-2.38V82h30.96V66.83h-2.38v-3.54C66.7,61.4,68,58.68,68,55.74z M62.64,36.48
				c1.64,0,2.98,1.31,2.98,2.92c0,0.9-0.42,1.73-1.12,2.27l-4.18-4.1C60.87,36.89,61.72,36.48,62.64,36.48z M56.68,30.64
				c1.64,0,2.98,1.31,2.98,2.92c0,0.9-0.42,1.73-1.12,2.27l-4.18-4.1C54.92,31.05,55.77,30.64,56.68,30.64z M50.73,24.8
				c1.64,0,2.98,1.31,2.98,2.92c0,0.9-0.42,1.73-1.12,2.27l-4.18-4.1C48.97,25.22,49.81,24.8,50.73,24.8z M44.77,18.97
				c1.64,0,2.98,1.31,2.98,2.92c0,0.9-0.42,1.73-1.12,2.27l-4.18-4.1C43.01,19.38,43.86,18.97,44.77,18.97z M16.82,31.25
				c-0.6-0.59-0.6-1.55,0-2.14l14.66-14.37c0.15-0.15,0.32-0.26,0.51-0.33c0.08-0.03,0.18-0.03,0.27-0.05
				c0.21-0.04,0.42-0.04,0.63,0c0.09,0.02,0.18,0.02,0.27,0.05c0.18,0.07,0.36,0.18,0.51,0.33l2.8,2.74L19.61,33.99L16.82,31.25z
				 M21.3,35.64l16.84-16.51l1.4,1.37l5.95,5.84l0.68,0.67l5.27,5.17l0.68,0.67l5.27,5.17l0.68,0.67l5.95,5.84l1.12,1.1
				c0.6,0.59,0.6,1.55,0,2.14l-0.52,0.51L50.5,62.13c-0.6,0.59-1.58,0.59-2.18,0l-9.5-9.31h1.19c2.95,0,5.36-2.36,5.36-5.25
				c0-2.9-2.4-5.25-5.36-5.25H28.1L21.3,35.64z M25.12,47.57c0-1.39,1-2.56,2.34-2.85l0.49-0.05c0.05-0.01,0.1-0.02,0.15-0.02h11.91
				c1.64,0,2.98,1.31,2.98,2.92c0,1.61-1.34,2.92-2.98,2.92H28.1C26.46,50.48,25.12,49.18,25.12,47.57z M54.9,79.67H38.22V69.16
				h10.03c3.66,0,6.64,2.92,6.64,6.51V79.67z M64.42,79.67h-7.15v-4c0-2.58-1.14-4.89-2.93-6.51h10.08V79.67z M62.52,61.8
				l-0.47,0.35v4.68H40.6v-3.17l-0.42-0.35c-0.05-0.05-0.11-0.09-0.21-0.16L29.4,52.82h6.06l11.18,10.96
				c0.77,0.75,1.77,1.12,2.77,1.12c1.01,0,2.01-0.37,2.77-1.12l12.27-12.02c0.76,1.19,1.16,2.57,1.16,3.98
				C65.61,58.14,64.49,60.34,62.52,61.8z"/>
		</g>
	</g>
</g>
</svg>
