<svg xmlns="http://www.w3.org/2000/svg" viewBox="0 0 19.96 20.42"><defs><style>.cls-1{isolation:isolate;}.cls-2{fill:#46c7f4;fill-rule:evenodd;}</style></defs><title>icon-twitter</title><g id="Twitter" class="cls-1"><g id="Twitter-2" data-name="Twitter"><path class="cls-2" d="M10,.55A10.1,10.1,0,0,0,0,10.76,10.1,10.1,0,0,0,10,21,10.1,10.1,0,0,0,20,10.76,10.1,10.1,0,0,0,10,.55ZM15.4,8.17c.09,3.51-2.27,8.23-7.69,8.23a6.45,6.45,0,0,1-4-1.27,5,5,0,0,0,3.91-1.07A2.82,2.82,0,0,1,5.1,12.12a2.61,2.61,0,0,0,1.18,0A2.87,2.87,0,0,1,4.19,9.31a2.27,2.27,0,0,0,1.11.33A2.83,2.83,0,0,1,4.58,6c.46.51,2.54,2.82,5.47,2.82a2.72,2.72,0,0,1,2.61-3.35,2.33,2.33,0,0,1,2,.87,10.28,10.28,0,0,0,1.75-.67A3.29,3.29,0,0,1,15.2,7.23a7,7,0,0,0,1.5-.47A4.29,4.29,0,0,1,15.4,8.17Z" transform="translate(0 -0.55)"/></g></g></svg>