<?xml version="1.0" encoding="utf-8"?>
<!-- Generator: Adobe Illustrator 24.0.3, SVG Export Plug-In . SVG Version: 6.00 Build 0)  -->
<svg version="1.1" xmlns="http://www.w3.org/2000/svg" xmlns:xlink="http://www.w3.org/1999/xlink" x="0px" y="0px"
	 viewBox="0 0 85 90" style="enable-background:new 0 0 85 90;" xml:space="preserve">
<style type="text/css">
	.st0{enable-background:new    ;}
	.st1{fill-rule:evenodd;clip-rule:evenodd;fill:#F4FAFF;}
	.st2{fill-rule:evenodd;clip-rule:evenodd;fill:#1085E4;}
</style>
<g id="Polygon_2_1_" class="st0">
	<g id="Polygon_2">
		<g>
			<polygon class="st1" points="50,0.01 15.01,20.01 15.01,60 50,80 84.99,60 84.99,20.01 			"/>
		</g>
	</g>
</g>
<g id="icon_1_" class="st0">
	<g id="icon">
		<g>
			<path class="st2" d="M37.76,65.64c0.62,0,1.12-0.5,1.12-1.12c0-0.62-0.5-1.12-1.12-1.12H2.4c-0.09,0-0.17-0.08-0.17-0.17V22.4
				c0-0.09,0.08-0.17,0.17-0.17h53.88c0.09,0,0.17,0.08,0.17,0.17v19.66c0,0.62,0.5,1.12,1.12,1.12c0.62,0,1.12-0.5,1.12-1.12V22.4
				c0-1.32-1.08-2.4-2.4-2.4H2.4C1.08,20,0,21.08,0,22.4v40.84c0,1.32,1.08,2.4,2.4,2.4h20.14v6.75h-8.59
				c-0.62,0-1.12,0.5-1.12,1.12s0.5,1.12,1.12,1.12h23.81c0.62,0,1.12-0.5,1.12-1.12s-0.5-1.12-1.12-1.12h-1.61v-6.75H37.76z
				 M33.91,72.39h-9.14v-6.75h9.14V72.39z M37.76,55.84H5.59c-0.62,0-1.12,0.5-1.12,1.12s0.5,1.12,1.12,1.12h32.17
				c0.62,0,1.12-0.5,1.12-1.12S38.37,55.84,37.76,55.84z M67.6,45.41H43.51c-1.32,0-2.4,1.08-2.4,2.4V87.6c0,1.32,1.08,2.4,2.4,2.4
				H67.6c1.32,0,2.4-1.08,2.4-2.4V47.81C70,46.49,68.92,45.41,67.6,45.41z M43.34,47.81c0-0.09,0.08-0.17,0.17-0.17H67.6
				c0.09,0,0.17,0.08,0.17,0.17v2.07H43.34V47.81z M67.77,87.6c0,0.09-0.08,0.17-0.17,0.17H43.51c-0.09,0-0.17-0.08-0.17-0.17v-6.54
				h24.43V87.6z M67.77,78.83H43.34V52.11h24.43V78.83z M53.32,85.53h4.47c0.62,0,1.12-0.5,1.12-1.12c0-0.62-0.5-1.12-1.12-1.12
				h-4.47c-0.62,0-1.12,0.5-1.12,1.12C52.2,85.03,52.7,85.53,53.32,85.53z"/>
		</g>
	</g>
</g>
</svg>
