<svg xmlns="http://www.w3.org/2000/svg" viewBox="0 0 19.99 20.45"><defs><style>.cls-1{isolation:isolate;}.cls-2{fill:#0f76a8;fill-rule:evenodd;}</style></defs><title>icon-linkedIn</title><g id="LinkedIn" class="cls-1"><g id="LinkedIn-2" data-name="LinkedIn"><path class="cls-2" d="M10.71,8.94v0l0,0ZM10,0A10.11,10.11,0,0,0,0,10.23,10.11,10.11,0,0,0,10,20.45,10.12,10.12,0,0,0,20,10.23,10.12,10.12,0,0,0,10,0ZM6.84,15.49H4.35V7.83H6.84ZM5.59,6.78h0a1.33,1.33,0,1,1,0-2.65A1.3,1.3,0,0,1,7,5.45,1.31,1.31,0,0,1,5.59,6.78Zm10.23,8.71H13.33v-4.1c0-1-.36-1.73-1.26-1.73a1.36,1.36,0,0,0-1.28.93,1.67,1.67,0,0,0-.08.62v4.28H8.21s0-6.94,0-7.66h2.5V8.91A2.46,2.46,0,0,1,13,7.65c1.64,0,2.87,1.09,2.87,3.45Z" transform="translate(-0.02 0)"/></g></g></svg>