<svg xmlns="http://www.w3.org/2000/svg" viewBox="0 0 89 85"><defs><style>.cls-1{isolation:isolate;}.cls-2{fill:#f4faff;}.cls-3{fill:#1085e4;fill-rule:evenodd;}</style></defs><title>icon-customise</title><g id="Rounded_Rectangle_1" data-name="Rounded Rectangle 1" class="cls-1"><g id="Rounded_Rectangle_1-2" data-name="Rounded Rectangle 1"><rect class="cls-2" x="15" width="74" height="74" rx="10"/></g></g><g id="icon" class="cls-1"><g id="icon-2" data-name="icon"><path class="cls-3" d="M72.84,68.73a12.48,12.48,0,0,0-3.21-5.28,12.65,12.65,0,0,0-9-3.69,12.86,12.86,0,0,0-5,1L43.14,48.39,59.73,32.06,63.66,32a1.41,1.41,0,0,0,1.16-.67l5.62-9.38a1.36,1.36,0,0,0-.21-1.68L65.37,15.4a1.41,1.41,0,0,0-1.69-.21l-9.46,5.58a1.38,1.38,0,0,0-.68,1.14l-.11,3.89L36.88,42.18,25.52,30.92A12.61,12.61,0,0,0,15.16,16.36,12.83,12.83,0,0,0,6,18.29a1.37,1.37,0,0,0-.37,1.91,1.29,1.29,0,0,0,.47.43l6.31,3.49c1.38.78,1.66,3.12.54,5.11s-3.28,3-4.68,2.23L2.37,28.32a1.38,1.38,0,0,0-1.88.54,1.32,1.32,0,0,0-.17.75A12.68,12.68,0,0,0,13.79,41.4a12.89,12.89,0,0,0,4.2-1L28.32,50.65l-4.47,4.43-1-1a2.93,2.93,0,0,0-4,0l-1.39,1.38a2.73,2.73,0,0,0-.15,3.79L.86,75.52a2.73,2.73,0,0,0-.09,3.89l.09.08,4.69,4.66a2.79,2.79,0,0,0,3.93.08l.09-.08L26,67.86a2.79,2.79,0,0,0,3.81-.15l1.39-1.38a2.73,2.73,0,0,0,.09-3.89l-.09-.09-1-1,4.44-4.51L48.11,70.2A12.61,12.61,0,0,0,58.53,84.71a12.77,12.77,0,0,0,11.19-3.6,1.37,1.37,0,0,0-.12-2,1.22,1.22,0,0,0-.51-.28L61.28,76.8a2.55,2.55,0,0,1-1.64-1.59A5,5,0,0,1,59.5,72c.58-2.16,2.43-3.7,4-3.29l7.74,2.07a1.15,1.15,0,0,0,.37,0A1.39,1.39,0,0,0,73,69.38,1.33,1.33,0,0,0,72.84,68.73ZM55.75,27.33a1.39,1.39,0,0,0,.4-.94l.11-3.68,7.88-4.64,3.33,3.31-4.58,7.79-3.78.14a1.41,1.41,0,0,0-1,.4L41.22,46.49l-2.38-2.37ZM7.59,82.19,2.83,77.5,19.34,61.17l2.39,2.37L24,65.88ZM27.91,65.67l-1.83-1.83-.71-.7-5.84-5.83,1.39-1.37,8.33,8.37Zm.26-6.28L25.78,57l4.47-4.43L32.64,55Zm36,6.63a4.85,4.85,0,0,0-1.26-.17,6.76,6.76,0,0,0-6.12,5.4,7.66,7.66,0,0,0,.26,5,5.29,5.29,0,0,0,3.49,3.17l5.16,1.38A10,10,0,0,1,52.08,77.4a9.77,9.77,0,0,1-1.14-7.3,1.36,1.36,0,0,0-.37-1.28L19.27,37.76a1.4,1.4,0,0,0-1.64-.19A10,10,0,0,1,13,38.71a9.9,9.9,0,0,1-9.33-6.48L6.82,34a4.83,4.83,0,0,0,2.41.61,7.23,7.23,0,0,0,6-3.91c1.89-3.34,1.15-7.32-1.62-8.86l-4-2.27a10,10,0,0,1,12.69,6A9.74,9.74,0,0,1,22.62,31,1.35,1.35,0,0,0,23,32.32L54.36,63.41a1.38,1.38,0,0,0,1.62.25,10.09,10.09,0,0,1,4.66-1.14,9.94,9.94,0,0,1,8.55,4.84Z" transform="translate(0)"/></g></g></svg>