<?xml version="1.0" encoding="utf-8"?>
<!-- Generator: Adobe Illustrator 24.0.3, SVG Export Plug-In . SVG Version: 6.00 Build 0)  -->
<svg version="1.1" xmlns="http://www.w3.org/2000/svg" xmlns:xlink="http://www.w3.org/1999/xlink" x="0px" y="0px"
	 viewBox="0 0 73 79" style="enable-background:new 0 0 73 79;" xml:space="preserve">
<style type="text/css">
	.st0{enable-background:new    ;}
	.st1{fill-rule:evenodd;clip-rule:evenodd;fill:#F4FAFF;}
	.st2{fill-rule:evenodd;clip-rule:evenodd;fill:#1085E4;}
</style>
<g id="bg_1_" class="st0">
	<g id="bg">
		<g>
			<rect x="10" y="16" class="st1" width="63" height="63"/>
		</g>
	</g>
</g>
<g id="icon_1_" class="st0">
	<g id="icon">
		<g>
			<path class="st2" d="M37.93,0H0v70h55V17.02L37.93,0z M38.62,3.98L51,16.33H38.62V3.98z M52.66,67.67H2.34V2.33h33.94v16.33
				h16.38V67.67z M11.7,19.83h10.53c0.65,0,1.17-0.52,1.17-1.17c0-0.65-0.52-1.17-1.17-1.17H11.7c-0.65,0-1.17,0.52-1.17,1.17
				C10.53,19.31,11.06,19.83,11.7,19.83z M31.6,43.17H11.7c-0.65,0-1.17,0.52-1.17,1.17c0,0.65,0.52,1.17,1.17,1.17H31.6
				c0.65,0,1.17-0.52,1.17-1.17C32.77,43.69,32.24,43.17,31.6,43.17z M43.3,35h-8.19c-0.65,0-1.17,0.52-1.17,1.17
				c0,0.65,0.52,1.17,1.17,1.17h8.19c0.65,0,1.17-0.52,1.17-1.17C44.47,35.52,43.94,35,43.3,35z M11.7,29.17h5.85
				c0.65,0,1.17-0.52,1.17-1.17s-0.52-1.17-1.17-1.17H11.7c-0.65,0-1.17,0.52-1.17,1.17S11.06,29.17,11.7,29.17z M28.09,28
				c0,0.65,0.52,1.17,1.17,1.17h8.19c0.65,0,1.17-0.52,1.17-1.17s-0.52-1.17-1.17-1.17h-8.19C28.61,26.83,28.09,27.35,28.09,28z
				 M22.23,28c0,0.3,0.13,0.61,0.34,0.83c0.22,0.21,0.53,0.34,0.83,0.34c0.3,0,0.61-0.13,0.83-0.34c0.21-0.22,0.34-0.52,0.34-0.83
				c0-0.3-0.13-0.61-0.34-0.83c-0.43-0.43-1.22-0.43-1.66,0C22.36,27.39,22.23,27.7,22.23,28z M16.38,36.17
				c0,0.65,0.52,1.17,1.17,1.17h11.7c0.65,0,1.17-0.52,1.17-1.17c0-0.65-0.52-1.17-1.17-1.17h-11.7
				C16.91,35,16.38,35.52,16.38,36.17z M11.7,37.33c0.3,0,0.61-0.13,0.83-0.34c0.21-0.22,0.34-0.53,0.34-0.83
				c0-0.3-0.13-0.61-0.34-0.83c-0.43-0.43-1.23-0.43-1.66,0c-0.21,0.22-0.34,0.51-0.34,0.83c0,0.3,0.13,0.61,0.34,0.83
				C11.09,37.2,11.4,37.33,11.7,37.33z M43.3,51.33h-8.19c-0.65,0-1.17,0.52-1.17,1.17c0,0.65,0.52,1.17,1.17,1.17h8.19
				c0.65,0,1.17-0.52,1.17-1.17C44.47,51.85,43.94,51.33,43.3,51.33z M29.26,51.33h-11.7c-0.65,0-1.17,0.52-1.17,1.17
				c0,0.65,0.52,1.17,1.17,1.17h11.7c0.65,0,1.17-0.52,1.17-1.17C30.43,51.85,29.9,51.33,29.26,51.33z M10.87,51.67
				c-0.21,0.21-0.34,0.51-0.34,0.83c0,0.31,0.12,0.61,0.34,0.83c0.22,0.21,0.53,0.34,0.83,0.34c0.32,0,0.61-0.13,0.83-0.34
				c0.21-0.22,0.34-0.52,0.34-0.83c0-0.32-0.13-0.61-0.34-0.82C12.1,51.24,11.32,51.24,10.87,51.67z M43.3,29.17
				c0.3,0,0.61-0.13,0.83-0.34c0.22-0.22,0.34-0.52,0.34-0.83c0-0.3-0.12-0.61-0.34-0.83c-0.44-0.43-1.22-0.43-1.66,0
				c-0.21,0.22-0.34,0.52-0.34,0.83c0,0.3,0.13,0.61,0.34,0.83C42.69,29.04,42.99,29.17,43.3,29.17z M38.28,45.16
				c0.21-0.22,0.34-0.53,0.34-0.83c0-0.3-0.13-0.61-0.34-0.83c-0.44-0.43-1.23-0.43-1.66,0c-0.21,0.22-0.34,0.52-0.34,0.83
				c0,0.3,0.13,0.61,0.34,0.83c0.22,0.22,0.51,0.34,0.83,0.34S38.06,45.37,38.28,45.16z M42.47,43.5c-0.21,0.22-0.34,0.52-0.34,0.83
				c0,0.3,0.13,0.61,0.34,0.83c0.22,0.21,0.52,0.34,0.83,0.34c0.32,0,0.61-0.13,0.83-0.34c0.21-0.22,0.34-0.53,0.34-0.83
				c0-0.3-0.13-0.61-0.34-0.83C43.7,43.07,42.9,43.07,42.47,43.5z"/>
		</g>
	</g>
</g>
</svg>
