<?xml version="1.0" encoding="utf-8"?>
<!-- Generator: Adobe Illustrator 24.0.3, SVG Export Plug-In . SVG Version: 6.00 Build 0)  -->
<svg version="1.1" xmlns="http://www.w3.org/2000/svg" xmlns:xlink="http://www.w3.org/1999/xlink" x="0px" y="0px"
	 viewBox="0 0 103 92" style="enable-background:new 0 0 103 92;" xml:space="preserve">
<style type="text/css">
	.st0{enable-background:new    ;}
	.st1{fill-rule:evenodd;clip-rule:evenodd;fill:#F4FAFF;}
	.st2{fill-rule:evenodd;clip-rule:evenodd;fill:#1085E4;}
</style>
<g id="Polygon_1_1_" class="st0">
	<g id="Polygon_1">
		<g>
			<polygon class="st1" points="51.4,0.04 11.09,40.34 36.97,91.13 93.27,82.21 102.18,25.92 			"/>
		</g>
	</g>
</g>
<g id="icon_1_" class="st0">
	<g id="icon">
		<g>
			<path class="st2" d="M68.95,52.49l-4.05-0.78c-2.39-0.46-4.34-2.08-5.23-4.35c-0.89-2.26-0.56-4.78,0.88-6.74l2.55-3.47
				c0.38-0.51,0.32-1.23-0.13-1.68l-5.5-5.5c-0.44-0.44-1.13-0.51-1.64-0.16l-3.42,2.32c-2.01,1.36-4.54,1.6-6.77,0.62
				c-2.23-0.97-3.78-2.99-4.15-5.39l-0.65-4.25c-0.1-0.63-0.64-1.1-1.28-1.1h-7.78c-0.62,0-1.16,0.44-1.27,1.05l-1.01,5.24
				c-0.45,2.33-2.03,4.27-4.23,5.18c-2.2,0.91-4.68,0.66-6.65-0.67l-4.42-2.99c-0.51-0.35-1.2-0.28-1.64,0.16l-5.5,5.5
				c-0.45,0.45-0.51,1.17-0.13,1.68l2.55,3.47c1.44,1.96,1.77,4.48,0.88,6.74c-0.89,2.26-2.84,3.89-5.23,4.35l-4.05,0.78
				C0.44,52.6,0,53.14,0,53.76v7.78c0,0.64,0.47,1.18,1.1,1.28l4.26,0.65c2.4,0.37,4.42,1.92,5.39,4.15
				c0.97,2.23,0.74,4.76-0.62,6.77L7.8,77.81c-0.35,0.51-0.28,1.2,0.16,1.64l5.5,5.5c0.45,0.45,1.17,0.51,1.68,0.13l3.47-2.55
				c1.96-1.44,4.48-1.77,6.74-0.88c2.26,0.89,3.89,2.84,4.35,5.23l0.78,4.06C30.6,91.56,31.14,92,31.76,92h7.78
				c0.64,0,1.18-0.47,1.28-1.1l0.46-2.99c0.38-2.46,1.97-4.49,4.27-5.44c2.3-0.95,4.86-0.64,6.87,0.83l2.44,1.79
				c0.52,0.38,1.23,0.32,1.68-0.13l5.5-5.5c0.44-0.44,0.51-1.13,0.16-1.64l-2.32-3.42c-1.36-2.01-1.6-4.55-0.62-6.77
				c0.97-2.23,2.99-3.78,5.39-4.15l4.25-0.65c0.63-0.1,1.1-0.64,1.1-1.28v-7.78C70,53.14,69.56,52.6,68.95,52.49z M67.41,60.42
				l-3.16,0.49c-3.29,0.51-6.04,2.63-7.37,5.68c-1.33,3.05-1.01,6.51,0.86,9.26l1.72,2.53l-3.96,3.96l-1.55-1.13
				c-2.74-2.01-6.25-2.43-9.39-1.13c-3.14,1.3-5.32,4.08-5.84,7.44l-0.29,1.89h-5.59l-0.58-3c-0.63-3.27-2.85-5.94-5.95-7.16
				c-3.09-1.21-6.54-0.76-9.22,1.2l-2.58,1.89l-3.96-3.96l1.72-2.53c1.86-2.75,2.18-6.22,0.85-9.26c-1.33-3.05-4.09-5.17-7.37-5.67
				l-3.16-0.49v-5.59l3-0.58c3.27-0.63,5.94-2.85,7.16-5.95c1.21-3.1,0.77-6.54-1.2-9.23l-1.89-2.58l3.96-3.96l3.53,2.39
				c2.69,1.82,6.09,2.17,9.1,0.92c3-1.24,5.16-3.89,5.78-7.09l0.8-4.18h5.59l0.49,3.16c0.51,3.29,2.63,6.04,5.68,7.37
				c3.05,1.33,6.51,1.01,9.26-0.85l2.53-1.72l3.96,3.96l-1.89,2.57c-1.97,2.68-2.42,6.13-1.2,9.23c1.21,3.1,3.89,5.32,7.16,5.95
				l3,0.58V60.42z M35.65,44.04c-7.51,0-13.61,6.11-13.61,13.61c0,7.51,6.11,13.61,13.61,13.61c7.51,0,13.61-6.11,13.61-13.61
				C49.26,50.14,43.15,44.04,35.65,44.04z M35.65,68.67c-6.08,0-11.02-4.94-11.02-11.02c0-6.08,4.94-11.02,11.02-11.02
				c6.08,0,11.02,4.94,11.02,11.02C46.67,63.72,41.72,68.67,35.65,68.67z M35.65,50.52c-3.93,0-7.13,3.2-7.13,7.13
				c0,3.93,3.2,7.13,7.13,7.13c3.93,0,7.13-3.2,7.13-7.13C42.78,53.72,39.58,50.52,35.65,50.52z M35.65,62.18
				c-2.5,0-4.54-2.04-4.54-4.54s2.04-4.54,4.54-4.54c2.5,0,4.54,2.04,4.54,4.54S38.15,62.18,35.65,62.18z"/>
		</g>
	</g>
</g>
</svg>
