<svg xmlns="http://www.w3.org/2000/svg" width="19.969" height="20.44" viewBox="0 0 19.969 20.44">
  <defs>
    <style>
      .cls-1 {
        fill: #db4a38;
        fill-rule: evenodd;
      }
    </style>
  </defs>
  <path id="Google_" data-name="Google +" class="cls-1" d="M506.514,1530a2.993,2.993,0,0,1,3.024-2.74c0.831,0,3.73.01,3.73,0.01l-0.8.59h-1.146a2.3,2.3,0,0,1,1.165,2.16,2.491,2.491,0,0,1-1.094,2.02,1.116,1.116,0,0,0-.621,1c0,0.46,1,1.17,1.373,1.49a2.393,2.393,0,0,1,.843,2.06c0,1.23-1.14,2.67-3.552,2.67s-3.7-1.06-3.7-2.23a2.821,2.821,0,0,1,1.579-2.14,4.831,4.831,0,0,1,2.6-.48,1.358,1.358,0,0,1-.309-1.71A2.717,2.717,0,0,1,506.514,1530Zm1.275-.43c0,2.13,1.57,2.82,2.041,2.77,0.367,0,1.38-.29,1.38-1.84s-1.143-2.72-2.095-2.66A1.507,1.507,0,0,0,507.789,1529.57Zm1.821,5.19c-1.123,0-2.573.75-2.573,1.93a2.217,2.217,0,0,0,2.389,1.98c1.217,0,2.629-.33,2.629-1.95a1.5,1.5,0,0,0-.712-1.25,3.351,3.351,0,0,0-.778-0.56A2.473,2.473,0,0,0,509.61,1534.76Zm12.372-1.53a9.994,9.994,0,1,1-9.991-10.23A10.109,10.109,0,0,1,521.982,1533.23Zm-2.775-3.41h-2.22v-2.28h-0.555v2.28h-2.22v0.56h2.22v2.28h0.555v-2.28h2.22v-0.56Z" transform="translate(-502 -1523)"/>
</svg>
