<svg xmlns="http://www.w3.org/2000/svg" width="19.969" height="20.44" viewBox="0 0 19.969 20.44">
  <defs>
    <style>
      .cls-1 {
        fill: #0f76a8;
        fill-rule: evenodd;
      }
    </style>
  </defs>
  <path id="LinkedIn" class="cls-1" d="M542.819,1534.1v4.39h-2.49v-4.1c0-1.03-.36-1.73-1.261-1.73a1.364,1.364,0,0,0-1.279.93,1.752,1.752,0,0,0-.082.62v4.28h-2.492s0.034-6.94,0-7.66h2.492v1.08c0,0.01-.012.02-0.016,0.03h0.016v-0.03a2.465,2.465,0,0,1,2.244-1.26C541.592,1530.65,542.819,1531.74,542.819,1534.1Zm-10.208-6.97a1.327,1.327,0,1,0-.035,2.65h0.018A1.327,1.327,0,1,0,532.611,1527.13Zm-1.263,11.36h2.489v-7.66h-2.489v7.66Zm15.659-5.26a10,10,0,1,1-9.994-10.23A10.112,10.112,0,0,1,547.007,1533.23Z" transform="translate(-527.031 -1523)"/>
</svg>
