<svg xmlns="http://www.w3.org/2000/svg" width="19.969" height="20.41" viewBox="0 0 19.969 20.41">
  <defs>
    <style>
      .cls-1 {
        fill: #46c7f4;
        fill-rule: evenodd;
      }
    </style>
  </defs>
  <path id="Twitter" class="cls-1" d="M496.957,1533.76a9.981,9.981,0,1,1-9.979-10.21A10.1,10.1,0,0,1,496.957,1533.76Zm-4.756-3.53a3.355,3.355,0,0,0,1.173-1.54,10.491,10.491,0,0,1-1.759.67,2.312,2.312,0,0,0-1.955-.87,2.717,2.717,0,0,0-2.606,3.35c-2.938,0-5.016-2.31-5.472-2.82a2.827,2.827,0,0,0,.717,3.62,2.274,2.274,0,0,1-1.108-.33,2.87,2.87,0,0,0,2.085,2.81,2.571,2.571,0,0,1-1.172,0,2.81,2.81,0,0,0,2.475,1.94,5.017,5.017,0,0,1-3.909,1.07,6.463,6.463,0,0,0,4.04,1.27c5.419,0,7.778-4.72,7.687-8.23a4.31,4.31,0,0,0,1.3-1.41A7.074,7.074,0,0,1,492.2,1530.23Z" transform="translate(-477 -1523.56)"/>
</svg>
