<svg xmlns="http://www.w3.org/2000/svg" width="19.938" height="20.44" viewBox="0 0 19.938 20.44">
  <defs>
    <style>
      .cls-1 {
        fill: #e22425;
        fill-rule: evenodd;
      }
    </style>
  </defs>
  <path id="Path" class="cls-1" d="M562,1523.57a10.218,10.218,0,1,0,9.983,10.21A10.1,10.1,0,0,0,562,1523.57Zm1.387,12.98a3.588,3.588,0,0,1-1.4-.28v1.45a1.839,1.839,0,0,1-2.065,1.97,1.734,1.734,0,0,1-1.4-.52v-1.67a1.379,1.379,0,0,0,.895.36,0.613,0.613,0,0,0,.625-0.66v-5.97h1.948v3.5a2.4,2.4,0,0,0,1.041.18,2.359,2.359,0,0,0,2.385-2.3c0-1.85-1.548-2.86-3.664-2.86s-3.585,1.3-3.585,2.93a2.514,2.514,0,0,0,.539,1.49l-1.441,1.26a3.385,3.385,0,0,1-.968-2.72c0-1.93,1.231-4.88,5.371-4.88,2.875,0,5.722,1.46,5.722,4.71A3.971,3.971,0,0,1,563.387,1536.55Z" transform="translate(-552.031 -1523.56)"/>
</svg>
